<mxfile host="Electron" modified="2024-04-18T04:01:15.362Z" agent="Mozilla/5.0 (Windows NT 10.0; Win64; x64) AppleWebKit/537.36 (KHTML, like Gecko) draw.io/23.1.5 Chrome/120.0.6099.109 Electron/28.1.0 Safari/537.36" etag="-10ev211CWuPyYQRYg_j" version="23.1.5" type="device">
  <diagram name="Page-1" id="gHY25Ahpk9fJe571sf-f">
    <mxGraphModel dx="662" dy="398" grid="1" gridSize="10" guides="1" tooltips="1" connect="1" arrows="1" fold="1" page="1" pageScale="1" pageWidth="850" pageHeight="1100" math="0" shadow="0">
      <root>
        <mxCell id="0" />
        <mxCell id="1" parent="0" />
        <mxCell id="MTpcld5ROy2YElPAxB9t-5" value="User" style="shape=umlActor;verticalLabelPosition=bottom;verticalAlign=top;html=1;" parent="1" vertex="1">
          <mxGeometry x="70" y="211" width="30" height="47.5" as="geometry" />
        </mxCell>
        <mxCell id="MTpcld5ROy2YElPAxB9t-6" value="Student" style="shape=umlActor;verticalLabelPosition=bottom;verticalAlign=top;html=1;" parent="1" vertex="1">
          <mxGeometry x="27" y="323" width="33" height="47" as="geometry" />
        </mxCell>
        <mxCell id="MTpcld5ROy2YElPAxB9t-8" value="Authenticate" style="ellipse;whiteSpace=wrap;html=1;" parent="1" vertex="1">
          <mxGeometry x="219.5" y="183" width="80" height="43.5" as="geometry" />
        </mxCell>
        <mxCell id="MTpcld5ROy2YElPAxB9t-13" value="Return Book" style="ellipse;whiteSpace=wrap;html=1;" parent="1" vertex="1">
          <mxGeometry x="226" y="327.5" width="80" height="37" as="geometry" />
        </mxCell>
        <mxCell id="MTpcld5ROy2YElPAxB9t-14" value="Reserve a book" style="ellipse;whiteSpace=wrap;html=1;" parent="1" vertex="1">
          <mxGeometry x="240" y="390" width="90" height="44" as="geometry" />
        </mxCell>
        <mxCell id="MTpcld5ROy2YElPAxB9t-15" value="Search Book" style="ellipse;whiteSpace=wrap;html=1;" parent="1" vertex="1">
          <mxGeometry x="510" y="365" width="84" height="45" as="geometry" />
        </mxCell>
        <mxCell id="MTpcld5ROy2YElPAxB9t-16" value="View Book Details" style="ellipse;whiteSpace=wrap;html=1;" parent="1" vertex="1">
          <mxGeometry x="500" y="430" width="104" height="45" as="geometry" />
        </mxCell>
        <mxCell id="MTpcld5ROy2YElPAxB9t-17" value="Delete Book" style="ellipse;whiteSpace=wrap;html=1;" parent="1" vertex="1">
          <mxGeometry x="529.5" y="322.5" width="95" height="37.5" as="geometry" />
        </mxCell>
        <mxCell id="MTpcld5ROy2YElPAxB9t-18" value="Update Book" style="ellipse;whiteSpace=wrap;html=1;" parent="1" vertex="1">
          <mxGeometry x="530" y="268" width="94" height="39" as="geometry" />
        </mxCell>
        <mxCell id="MTpcld5ROy2YElPAxB9t-19" value="Add Book" style="ellipse;whiteSpace=wrap;html=1;" parent="1" vertex="1">
          <mxGeometry x="510" y="220" width="94" height="40" as="geometry" />
        </mxCell>
        <mxCell id="MTpcld5ROy2YElPAxB9t-20" style="edgeStyle=orthogonalEdgeStyle;rounded=0;orthogonalLoop=1;jettySize=auto;html=1;exitX=0.5;exitY=1;exitDx=0;exitDy=0;" parent="1" source="MTpcld5ROy2YElPAxB9t-17" target="MTpcld5ROy2YElPAxB9t-17" edge="1">
          <mxGeometry relative="1" as="geometry" />
        </mxCell>
        <mxCell id="MTpcld5ROy2YElPAxB9t-25" value="" style="endArrow=none;html=1;rounded=0;entryX=0;entryY=0.5;entryDx=0;entryDy=0;exitX=1;exitY=0.3333333333333333;exitDx=0;exitDy=0;exitPerimeter=0;" parent="1" source="MTpcld5ROy2YElPAxB9t-5" target="MTpcld5ROy2YElPAxB9t-8" edge="1">
          <mxGeometry width="50" height="50" relative="1" as="geometry">
            <mxPoint x="120" y="194" as="sourcePoint" />
            <mxPoint x="420" y="354" as="targetPoint" />
          </mxGeometry>
        </mxCell>
        <mxCell id="-RtHx6nqifNQPg9w558x-2" value="&lt;font style=&quot;font-size: 12px;&quot;&gt;Experiment No. 2 Use-Case Diagram for Library Management System&lt;/font&gt;" style="text;html=1;align=center;verticalAlign=middle;resizable=0;points=[];autosize=1;strokeColor=none;fillColor=none;fontStyle=1;fontSize=15;" parent="1" vertex="1">
          <mxGeometry x="210" y="710" width="420" height="30" as="geometry" />
        </mxCell>
        <mxCell id="-RtHx6nqifNQPg9w558x-3" value="Librarian" style="shape=umlActor;verticalLabelPosition=bottom;verticalAlign=top;html=1;" parent="1" vertex="1">
          <mxGeometry x="730" y="381" width="30" height="60" as="geometry" />
        </mxCell>
        <mxCell id="-RtHx6nqifNQPg9w558x-6" value="" style="endArrow=none;html=1;rounded=0;entryX=1;entryY=0.5;entryDx=0;entryDy=0;exitX=0;exitY=0.3333333333333333;exitDx=0;exitDy=0;exitPerimeter=0;" parent="1" source="-RtHx6nqifNQPg9w558x-3" target="MTpcld5ROy2YElPAxB9t-15" edge="1">
          <mxGeometry width="50" height="50" relative="1" as="geometry">
            <mxPoint x="748" y="517" as="sourcePoint" />
            <mxPoint x="772" y="348.5" as="targetPoint" />
          </mxGeometry>
        </mxCell>
        <mxCell id="f4JWDPXdjrtNTn15cFhd-8" value="" style="group" parent="1" vertex="1" connectable="0">
          <mxGeometry x="63" y="268" width="60" height="74" as="geometry" />
        </mxCell>
        <mxCell id="f4JWDPXdjrtNTn15cFhd-3" value="" style="strokeWidth=1;html=1;shape=mxgraph.flowchart.extract_or_measurement;whiteSpace=wrap;" parent="f4JWDPXdjrtNTn15cFhd-8" vertex="1">
          <mxGeometry x="12.000000000000004" y="10" width="12.000000000000002" height="10" as="geometry" />
        </mxCell>
        <mxCell id="f4JWDPXdjrtNTn15cFhd-10" value="Faculty" style="shape=umlActor;verticalLabelPosition=bottom;verticalAlign=top;html=1;" parent="1" vertex="1">
          <mxGeometry x="100" y="322.5" width="35" height="47" as="geometry" />
        </mxCell>
        <mxCell id="f4JWDPXdjrtNTn15cFhd-11" value="Invalid username or password" style="ellipse;whiteSpace=wrap;html=1;" parent="1" vertex="1">
          <mxGeometry x="360" y="160" width="120" height="51" as="geometry" />
        </mxCell>
        <mxCell id="f4JWDPXdjrtNTn15cFhd-13" value="" style="endArrow=open;endFill=1;endSize=12;html=1;rounded=0;entryX=0.978;entryY=0.322;entryDx=0;entryDy=0;exitX=0;exitY=0.5;exitDx=0;exitDy=0;entryPerimeter=0;" parent="1" source="f4JWDPXdjrtNTn15cFhd-11" target="MTpcld5ROy2YElPAxB9t-8" edge="1">
          <mxGeometry width="160" relative="1" as="geometry">
            <mxPoint x="350" y="154" as="sourcePoint" />
            <mxPoint x="540" y="364" as="targetPoint" />
          </mxGeometry>
        </mxCell>
        <mxCell id="f4JWDPXdjrtNTn15cFhd-14" value="&amp;lt;&amp;lt;exclude&amp;gt;&amp;gt;" style="edgeLabel;html=1;align=center;verticalAlign=middle;resizable=0;points=[];rotation=-60;" parent="f4JWDPXdjrtNTn15cFhd-13" vertex="1" connectable="0">
          <mxGeometry x="-0.2862" relative="1" as="geometry">
            <mxPoint x="3" y="4" as="offset" />
          </mxGeometry>
        </mxCell>
        <mxCell id="f4JWDPXdjrtNTn15cFhd-15" value="Renew a book" style="ellipse;whiteSpace=wrap;html=1;" parent="1" vertex="1">
          <mxGeometry x="239" y="447" width="90" height="40" as="geometry" />
        </mxCell>
        <mxCell id="f4JWDPXdjrtNTn15cFhd-16" value="Request to issue a new book" style="ellipse;whiteSpace=wrap;html=1;" parent="1" vertex="1">
          <mxGeometry x="254" y="237.5" width="116" height="45" as="geometry" />
        </mxCell>
        <mxCell id="f4JWDPXdjrtNTn15cFhd-17" value="Pay fine" style="ellipse;whiteSpace=wrap;html=1;" parent="1" vertex="1">
          <mxGeometry x="245" y="507" width="80" height="38" as="geometry" />
        </mxCell>
        <mxCell id="f4JWDPXdjrtNTn15cFhd-18" value="Feedback" style="ellipse;whiteSpace=wrap;html=1;" parent="1" vertex="1">
          <mxGeometry x="240" y="566" width="84" height="36" as="geometry" />
        </mxCell>
        <mxCell id="f4JWDPXdjrtNTn15cFhd-19" value="Register" style="ellipse;whiteSpace=wrap;html=1;" parent="1" vertex="1">
          <mxGeometry x="226" y="50" width="79" height="35" as="geometry" />
        </mxCell>
        <mxCell id="f4JWDPXdjrtNTn15cFhd-20" value="Filling feedback form" style="ellipse;whiteSpace=wrap;html=1;" parent="1" vertex="1">
          <mxGeometry x="240" y="646" width="84" height="36" as="geometry" />
        </mxCell>
        <mxCell id="f4JWDPXdjrtNTn15cFhd-25" style="edgeStyle=orthogonalEdgeStyle;rounded=0;orthogonalLoop=1;jettySize=auto;html=1;exitX=0.5;exitY=1;exitDx=0;exitDy=0;" parent="1" source="f4JWDPXdjrtNTn15cFhd-19" target="f4JWDPXdjrtNTn15cFhd-19" edge="1">
          <mxGeometry relative="1" as="geometry" />
        </mxCell>
        <mxCell id="f4JWDPXdjrtNTn15cFhd-26" value="Get library card" style="ellipse;whiteSpace=wrap;html=1;" parent="1" vertex="1">
          <mxGeometry x="280" y="120" width="90" height="40" as="geometry" />
        </mxCell>
        <mxCell id="f4JWDPXdjrtNTn15cFhd-27" value="Fill registration form" style="ellipse;whiteSpace=wrap;html=1;" parent="1" vertex="1">
          <mxGeometry x="180" y="130" width="90" height="40" as="geometry" />
        </mxCell>
        <mxCell id="f4JWDPXdjrtNTn15cFhd-29" value="" style="endArrow=open;endFill=1;endSize=12;html=1;rounded=0;exitX=0;exitY=1;exitDx=0;exitDy=0;" parent="1" source="f4JWDPXdjrtNTn15cFhd-19" target="f4JWDPXdjrtNTn15cFhd-27" edge="1">
          <mxGeometry width="160" relative="1" as="geometry">
            <mxPoint x="380" y="170" as="sourcePoint" />
            <mxPoint x="540" y="170" as="targetPoint" />
          </mxGeometry>
        </mxCell>
        <mxCell id="f4JWDPXdjrtNTn15cFhd-32" value="&amp;lt;&amp;lt;include&amp;gt;&amp;gt;" style="edgeLabel;html=1;align=center;verticalAlign=middle;resizable=0;points=[];" parent="f4JWDPXdjrtNTn15cFhd-29" vertex="1" connectable="0">
          <mxGeometry x="0.1754" y="-3" relative="1" as="geometry">
            <mxPoint as="offset" />
          </mxGeometry>
        </mxCell>
        <mxCell id="f4JWDPXdjrtNTn15cFhd-30" value="" style="endArrow=open;endFill=1;endSize=12;html=1;rounded=0;exitX=1;exitY=1;exitDx=0;exitDy=0;entryX=0.5;entryY=0;entryDx=0;entryDy=0;" parent="1" source="f4JWDPXdjrtNTn15cFhd-19" target="f4JWDPXdjrtNTn15cFhd-26" edge="1">
          <mxGeometry width="160" relative="1" as="geometry">
            <mxPoint x="380" y="170" as="sourcePoint" />
            <mxPoint x="540" y="170" as="targetPoint" />
          </mxGeometry>
        </mxCell>
        <mxCell id="f4JWDPXdjrtNTn15cFhd-31" value="&amp;lt;&amp;lt;include&amp;gt;&amp;gt;" style="edgeLabel;html=1;align=center;verticalAlign=middle;resizable=0;points=[];" parent="f4JWDPXdjrtNTn15cFhd-30" vertex="1" connectable="0">
          <mxGeometry x="-0.4281" y="1" relative="1" as="geometry">
            <mxPoint y="1" as="offset" />
          </mxGeometry>
        </mxCell>
        <mxCell id="f4JWDPXdjrtNTn15cFhd-33" value="invalid Renewal" style="ellipse;whiteSpace=wrap;html=1;" parent="1" vertex="1">
          <mxGeometry x="360" y="401" width="90" height="40" as="geometry" />
        </mxCell>
        <mxCell id="f4JWDPXdjrtNTn15cFhd-35" value="" style="endArrow=open;endFill=1;endSize=12;html=1;rounded=0;entryX=1;entryY=0.5;entryDx=0;entryDy=0;exitX=0;exitY=0.5;exitDx=0;exitDy=0;" parent="1" target="f4JWDPXdjrtNTn15cFhd-15" edge="1">
          <mxGeometry width="160" relative="1" as="geometry">
            <mxPoint x="369.99999999999864" y="433.5" as="sourcePoint" />
            <mxPoint x="554" y="416" as="targetPoint" />
          </mxGeometry>
        </mxCell>
        <mxCell id="f4JWDPXdjrtNTn15cFhd-37" value="&amp;lt;&amp;lt;exclude&amp;gt;&amp;gt;" style="edgeLabel;html=1;align=center;verticalAlign=middle;resizable=0;points=[];" parent="f4JWDPXdjrtNTn15cFhd-35" vertex="1" connectable="0">
          <mxGeometry x="-0.0812" y="2" relative="1" as="geometry">
            <mxPoint x="-6" as="offset" />
          </mxGeometry>
        </mxCell>
        <mxCell id="f4JWDPXdjrtNTn15cFhd-43" value="" style="endArrow=open;endFill=1;endSize=12;html=1;rounded=0;exitX=0.5;exitY=1;exitDx=0;exitDy=0;" parent="1" source="f4JWDPXdjrtNTn15cFhd-18" target="f4JWDPXdjrtNTn15cFhd-20" edge="1">
          <mxGeometry width="160" relative="1" as="geometry">
            <mxPoint x="254" y="596" as="sourcePoint" />
            <mxPoint x="344" y="646" as="targetPoint" />
          </mxGeometry>
        </mxCell>
        <mxCell id="f4JWDPXdjrtNTn15cFhd-44" value="&amp;lt;&amp;lt;include&amp;gt;&amp;gt;" style="edgeLabel;html=1;align=center;verticalAlign=middle;resizable=0;points=[];" parent="f4JWDPXdjrtNTn15cFhd-43" vertex="1" connectable="0">
          <mxGeometry x="-0.2171" relative="1" as="geometry">
            <mxPoint as="offset" />
          </mxGeometry>
        </mxCell>
        <mxCell id="f4JWDPXdjrtNTn15cFhd-46" value="" style="endArrow=none;html=1;rounded=0;entryX=1;entryY=0.3333333333333333;entryDx=0;entryDy=0;entryPerimeter=0;" parent="1" source="MTpcld5ROy2YElPAxB9t-15" target="MTpcld5ROy2YElPAxB9t-5" edge="1">
          <mxGeometry width="50" height="50" relative="1" as="geometry">
            <mxPoint x="335" y="252.5" as="sourcePoint" />
            <mxPoint x="110" y="226.5" as="targetPoint" />
          </mxGeometry>
        </mxCell>
        <mxCell id="f4JWDPXdjrtNTn15cFhd-48" value="Invalid ISBN" style="ellipse;whiteSpace=wrap;html=1;" parent="1" vertex="1">
          <mxGeometry x="380" y="291.5" width="80" height="37.5" as="geometry" />
        </mxCell>
        <mxCell id="f4JWDPXdjrtNTn15cFhd-53" value="" style="endArrow=open;endFill=1;endSize=12;html=1;rounded=0;exitX=1;exitY=0.5;exitDx=0;exitDy=0;entryX=0;entryY=0.5;entryDx=0;entryDy=0;" parent="1" source="f4JWDPXdjrtNTn15cFhd-48" target="MTpcld5ROy2YElPAxB9t-18" edge="1">
          <mxGeometry width="160" relative="1" as="geometry">
            <mxPoint x="260" y="340" as="sourcePoint" />
            <mxPoint x="420" y="340" as="targetPoint" />
          </mxGeometry>
        </mxCell>
        <mxCell id="f4JWDPXdjrtNTn15cFhd-55" value="&amp;lt;&amp;lt;exclude&amp;gt;&amp;gt;" style="edgeLabel;html=1;align=center;verticalAlign=middle;resizable=0;points=[];" parent="f4JWDPXdjrtNTn15cFhd-53" vertex="1" connectable="0">
          <mxGeometry x="-0.0897" y="-1" relative="1" as="geometry">
            <mxPoint x="-4" y="-3" as="offset" />
          </mxGeometry>
        </mxCell>
        <mxCell id="f4JWDPXdjrtNTn15cFhd-54" value="" style="endArrow=open;endFill=1;endSize=12;html=1;rounded=0;exitX=1;exitY=0.5;exitDx=0;exitDy=0;entryX=0;entryY=0.5;entryDx=0;entryDy=0;" parent="1" source="f4JWDPXdjrtNTn15cFhd-48" target="MTpcld5ROy2YElPAxB9t-17" edge="1">
          <mxGeometry width="160" relative="1" as="geometry">
            <mxPoint x="483" y="309" as="sourcePoint" />
            <mxPoint x="519" y="298" as="targetPoint" />
          </mxGeometry>
        </mxCell>
        <mxCell id="f4JWDPXdjrtNTn15cFhd-56" value="&amp;lt;&amp;lt;exclude&amp;gt;&amp;gt;" style="edgeLabel;html=1;align=center;verticalAlign=middle;resizable=0;points=[];" parent="f4JWDPXdjrtNTn15cFhd-54" vertex="1" connectable="0">
          <mxGeometry x="-0.1877" y="-1" relative="1" as="geometry">
            <mxPoint as="offset" />
          </mxGeometry>
        </mxCell>
        <mxCell id="f4JWDPXdjrtNTn15cFhd-57" style="edgeStyle=orthogonalEdgeStyle;rounded=0;orthogonalLoop=1;jettySize=auto;html=1;exitX=0.5;exitY=1;exitDx=0;exitDy=0;" parent="1" source="MTpcld5ROy2YElPAxB9t-18" target="MTpcld5ROy2YElPAxB9t-18" edge="1">
          <mxGeometry relative="1" as="geometry" />
        </mxCell>
        <mxCell id="f4JWDPXdjrtNTn15cFhd-58" value="" style="endArrow=none;html=1;rounded=0;entryX=1;entryY=0.5;entryDx=0;entryDy=0;" parent="1" target="MTpcld5ROy2YElPAxB9t-16" edge="1">
          <mxGeometry width="50" height="50" relative="1" as="geometry">
            <mxPoint x="720" y="400" as="sourcePoint" />
            <mxPoint x="604" y="413" as="targetPoint" />
          </mxGeometry>
        </mxCell>
        <mxCell id="f4JWDPXdjrtNTn15cFhd-59" value="" style="endArrow=none;html=1;rounded=0;entryX=1;entryY=0.5;entryDx=0;entryDy=0;" parent="1" target="MTpcld5ROy2YElPAxB9t-17" edge="1">
          <mxGeometry width="50" height="50" relative="1" as="geometry">
            <mxPoint x="720" y="400" as="sourcePoint" />
            <mxPoint x="614" y="423" as="targetPoint" />
          </mxGeometry>
        </mxCell>
        <mxCell id="f4JWDPXdjrtNTn15cFhd-60" value="" style="endArrow=none;html=1;rounded=0;entryX=0.972;entryY=0.701;entryDx=0;entryDy=0;entryPerimeter=0;" parent="1" target="MTpcld5ROy2YElPAxB9t-18" edge="1">
          <mxGeometry width="50" height="50" relative="1" as="geometry">
            <mxPoint x="720" y="400" as="sourcePoint" />
            <mxPoint x="624" y="433" as="targetPoint" />
          </mxGeometry>
        </mxCell>
        <mxCell id="f4JWDPXdjrtNTn15cFhd-61" value="" style="endArrow=none;html=1;rounded=0;entryX=1;entryY=0.5;entryDx=0;entryDy=0;" parent="1" target="MTpcld5ROy2YElPAxB9t-19" edge="1">
          <mxGeometry width="50" height="50" relative="1" as="geometry">
            <mxPoint x="720" y="400" as="sourcePoint" />
            <mxPoint x="634" y="443" as="targetPoint" />
          </mxGeometry>
        </mxCell>
        <mxCell id="f4JWDPXdjrtNTn15cFhd-62" value="" style="endArrow=none;html=1;rounded=0;entryX=1;entryY=0.3333333333333333;entryDx=0;entryDy=0;exitX=0;exitY=0;exitDx=0;exitDy=0;entryPerimeter=0;" parent="1" source="MTpcld5ROy2YElPAxB9t-13" target="MTpcld5ROy2YElPAxB9t-5" edge="1">
          <mxGeometry width="50" height="50" relative="1" as="geometry">
            <mxPoint x="270" y="266" as="sourcePoint" />
            <mxPoint x="134" y="268" as="targetPoint" />
          </mxGeometry>
        </mxCell>
        <mxCell id="f4JWDPXdjrtNTn15cFhd-63" value="" style="endArrow=none;html=1;rounded=0;exitX=0;exitY=0;exitDx=0;exitDy=0;" parent="1" source="MTpcld5ROy2YElPAxB9t-14" edge="1">
          <mxGeometry width="50" height="50" relative="1" as="geometry">
            <mxPoint x="790" y="461" as="sourcePoint" />
            <mxPoint x="100" y="230" as="targetPoint" />
          </mxGeometry>
        </mxCell>
        <mxCell id="f4JWDPXdjrtNTn15cFhd-64" value="" style="endArrow=none;html=1;rounded=0;exitX=0;exitY=0.5;exitDx=0;exitDy=0;entryX=1;entryY=0.3333333333333333;entryDx=0;entryDy=0;entryPerimeter=0;" parent="1" source="f4JWDPXdjrtNTn15cFhd-15" target="MTpcld5ROy2YElPAxB9t-5" edge="1">
          <mxGeometry width="50" height="50" relative="1" as="geometry">
            <mxPoint x="800" y="471" as="sourcePoint" />
            <mxPoint x="120" y="220" as="targetPoint" />
          </mxGeometry>
        </mxCell>
        <mxCell id="f4JWDPXdjrtNTn15cFhd-68" value="" style="endArrow=none;html=1;rounded=0;exitX=0;exitY=0;exitDx=0;exitDy=0;" parent="1" source="f4JWDPXdjrtNTn15cFhd-17" edge="1">
          <mxGeometry width="50" height="50" relative="1" as="geometry">
            <mxPoint x="810" y="481" as="sourcePoint" />
            <mxPoint x="100" y="230" as="targetPoint" />
          </mxGeometry>
        </mxCell>
        <mxCell id="f4JWDPXdjrtNTn15cFhd-69" value="" style="endArrow=none;html=1;rounded=0;exitX=0;exitY=0;exitDx=0;exitDy=0;entryX=1;entryY=0.3333333333333333;entryDx=0;entryDy=0;entryPerimeter=0;" parent="1" source="f4JWDPXdjrtNTn15cFhd-18" target="MTpcld5ROy2YElPAxB9t-5" edge="1">
          <mxGeometry width="50" height="50" relative="1" as="geometry">
            <mxPoint x="820" y="491" as="sourcePoint" />
            <mxPoint x="100" y="230" as="targetPoint" />
          </mxGeometry>
        </mxCell>
        <mxCell id="f4JWDPXdjrtNTn15cFhd-74" value="" style="endArrow=none;html=1;rounded=0;entryX=0;entryY=0.5;entryDx=0;entryDy=0;exitX=1;exitY=0.3333333333333333;exitDx=0;exitDy=0;exitPerimeter=0;" parent="1" source="MTpcld5ROy2YElPAxB9t-5" target="f4JWDPXdjrtNTn15cFhd-19" edge="1">
          <mxGeometry width="50" height="50" relative="1" as="geometry">
            <mxPoint x="110" y="237" as="sourcePoint" />
            <mxPoint x="230" y="215" as="targetPoint" />
          </mxGeometry>
        </mxCell>
        <mxCell id="f4JWDPXdjrtNTn15cFhd-75" value="" style="endArrow=none;html=1;rounded=0;entryX=0;entryY=0.5;entryDx=0;entryDy=0;" parent="1" target="f4JWDPXdjrtNTn15cFhd-16" edge="1">
          <mxGeometry width="50" height="50" relative="1" as="geometry">
            <mxPoint x="110" y="230" as="sourcePoint" />
            <mxPoint x="240" y="225" as="targetPoint" />
          </mxGeometry>
        </mxCell>
        <mxCell id="f4JWDPXdjrtNTn15cFhd-80" value="System Boundary" style="text;html=1;align=center;verticalAlign=middle;whiteSpace=wrap;rounded=0;" parent="1" vertex="1">
          <mxGeometry x="390" y="30" width="110" height="30" as="geometry" />
        </mxCell>
        <mxCell id="f4JWDPXdjrtNTn15cFhd-2" value="" style="strokeWidth=1;html=1;shape=mxgraph.flowchart.annotation_2;align=left;labelPosition=right;pointerEvents=1;rotation=90;" parent="1" vertex="1">
          <mxGeometry x="66" y="266" width="30" height="76" as="geometry" />
        </mxCell>
        <mxCell id="opgdTXPRB4WWUsUdWyT5-1" value="" style="endArrow=none;html=1;rounded=0;" edge="1" parent="1" source="MTpcld5ROy2YElPAxB9t-16">
          <mxGeometry width="50" height="50" relative="1" as="geometry">
            <mxPoint x="360" y="280" as="sourcePoint" />
            <mxPoint x="110" y="230" as="targetPoint" />
          </mxGeometry>
        </mxCell>
        <mxCell id="opgdTXPRB4WWUsUdWyT5-3" value="" style="rounded=0;whiteSpace=wrap;html=1;fillColor=none;fillStyle=solid;" vertex="1" parent="1">
          <mxGeometry x="150" y="36.5" width="510" height="653.5" as="geometry" />
        </mxCell>
      </root>
    </mxGraphModel>
  </diagram>
</mxfile>
